<?xml version="1.0" encoding="utf-8"?>
<!-- Generator: Adobe Illustrator 23.0.2, SVG Export Plug-In . SVG Version: 6.00 Build 0)  -->
<svg version="1.1" id="Layer_1" xmlns="http://www.w3.org/2000/svg" xmlns:xlink="http://www.w3.org/1999/xlink" x="0px" y="0px"
	 viewBox="0 0 18 18" style="enable-background:new 0 0 18 18;" xml:space="preserve">
<style type="text/css">
	.st0{fill:#282828;}
</style>
<g>
	<path class="st0" d="M17.8,8.8c0,4.8-3.9,8.7-8.7,8.7s-8.7-3.9-8.7-8.7s3.9-8.7,8.7-8.7S17.8,4,17.8,8.8z M2,8.8c0,3.9,3.1,7,7,7
		c3.9,0,7-3.1,7-7c0-3.9-3.1-7-7-7C5.2,1.8,2,5,2,8.8z M14,7l-6.1,6c-0.2,0.2-0.4,0.2-0.6,0L4.1,9.8C4,9.6,4,9.3,4.1,9.2l0.8-0.8
		c0.2-0.2,0.4-0.2,0.6,0l2.1,2.1l5-4.9c0.2-0.2,0.4-0.2,0.6,0L14,6.4C14.2,6.6,14.2,6.8,14,7z"/>
</g>
</svg>
