<?xml version="1.0" encoding="utf-8"?>
<!-- Generator: Adobe Illustrator 23.0.2, SVG Export Plug-In . SVG Version: 6.00 Build 0)  -->
<svg version="1.1" id="Layer_1" xmlns="http://www.w3.org/2000/svg" xmlns:xlink="http://www.w3.org/1999/xlink" x="0px" y="0px"
	 viewBox="0 0 964.3 486.7" style="enable-background:new 0 0 964.3 486.7;" xml:space="preserve">
<style type="text/css">
	.st0{opacity:0.3;fill:none;stroke:#44A77D;stroke-width:4;stroke-miterlimit:10;stroke-dasharray:12;enable-background:new    ;}
	.st1{fill:url(#SVGID_1_);}
	.st2{opacity:0.8;fill:#44A77D;enable-background:new    ;}
	.st3{fill:none;}
	.st4{fill:url(#SVGID_2_);}
	.st5{fill:#795548;}
	.st6{fill:url(#SVGID_3_);}
	.st7{fill:#44A77D;}
	.st8{fill:url(#SVGID_4_);}
	.st9{fill:url(#SVGID_5_);}
	.st10{fill:url(#SVGID_6_);}
	.st11{fill:url(#SVGID_7_);}
	.st12{fill:url(#SVGID_8_);}
	.st13{fill:url(#SVGID_9_);}
	.st14{fill:#FFFFFF;}
	.st15{fill:url(#SVGID_10_);}
	.st16{fill:#225B6E;}
	.st17{opacity:0.7;fill:#FFFFFF;enable-background:new    ;}
	.st18{fill:url(#SVGID_11_);}
	.st19{opacity:0.5;fill:#FFFFFF;enable-background:new    ;}
	.st20{fill:url(#SVGID_12_);}
	.st21{opacity:0.2;enable-background:new    ;}
	.st22{fill:#F2F2F2;}
	.st23{fill:#00FF00;}
	.st24{opacity:0.2;fill:#225B6E;enable-background:new    ;}
	.st25{fill:url(#SVGID_13_);}
	.st26{fill:url(#SVGID_14_);}
	.st27{fill:url(#SVGID_15_);}
	.st28{fill:url(#SVGID_16_);}
	.st29{fill:url(#SVGID_17_);}
	.st30{fill:url(#SVGID_18_);}
	.st31{fill:url(#SVGID_19_);}
</style>
<title>house searching</title>
<circle class="st0" cx="215.7" cy="234.5" r="182"/>
<g id="ff8ee4b4-5abc-4927-bead-5d69132ee8f9">
	
		<linearGradient id="SVGID_1_" gradientUnits="userSpaceOnUse" x1="1001.1499" y1="157.66" x2="1001.1499" y2="-59.841" gradientTransform="matrix(1 0 0 1 -146.3 216.54)">
		<stop  offset="0" style="stop-color:#808080;stop-opacity:0.25"/>
		<stop  offset="0.54" style="stop-color:#808080;stop-opacity:0.12"/>
		<stop  offset="1" style="stop-color:#808080;stop-opacity:0.1"/>
	</linearGradient>
	<path class="st1" d="M766.1,268.9c-7.8-8.3-12.2-19.3-12.2-30.8c0.1-16.1,8.6-30.9,22.4-39.1c-3-4.4-4.7-9.6-4.7-15
		c0-15.1,12.7-27.3,28.3-27.3c12.4-0.1,23.4,7.9,27.1,19.7c7.8-12.3,21.5-19.8,36.1-19.7c23.3,0,42.1,18.2,42.1,40.7
		c0,4.8-0.9,9.6-2.6,14c0.8-0.1,1.7-0.1,2.6-0.1c18.7,0,33.8,14.6,33.8,32.7c0,1.1-0.1,2.2-0.2,3.3c14.9,6.2,25.4,20.6,25.4,37.3
		c0,22.4-18.8,40.6-42,40.6c-2.4,0-4.9-0.2-7.3-0.6c0.1,1.3,0.2,2.7,0.2,4.1c0,25.2-21.1,45.5-47.1,45.5c-9.6,0-18.9-2.8-26.8-8.1
		c-6.4,5.3-14.5,8.1-22.8,8.1c-19.5,0-35.2-15.2-35.2-34c0-0.8,0.1-1.6,0.1-2.4h-0.1c-20.8,0-37.7-16.3-37.7-36.4
		C745.6,287.5,753.6,274.9,766.1,268.9z"/>
</g>
<path id="c200c6c4-addf-434c-9e0f-5ce7230e9a19" class="st2" d="M769.9,268.7c-7.5-8-11.7-18.5-11.7-29.5
	c0.1-15.4,8.2-29.6,21.5-37.4c-2.9-4.2-4.5-9.3-4.5-14.4c0-14.4,12.1-26.1,27.1-26.1c11.9-0.1,22.4,7.5,26,18.8
	c7.5-11.8,20.5-18.9,34.5-18.8c22.3,0,40.3,17.5,40.3,39c0,4.6-0.8,9.2-2.5,13.5c0.8-0.1,1.6-0.1,2.5-0.1c17.9,0,32.4,14,32.4,31.3
	c0,1.1-0.1,2.1-0.2,3.2c14.3,6,24.3,19.7,24.3,35.7c0,21.5-18,38.8-40.2,38.8c-2.3,0-4.7-0.2-7-0.6c0.1,1.3,0.2,2.6,0.2,3.9
	c0,24.1-20.2,43.6-45.1,43.6c-9.1,0-18.1-2.7-25.7-7.8c-6.1,5-13.8,7.8-21.7,7.8c-18.6,0-33.7-14.6-33.7-32.6c0-0.8,0.1-1.5,0.1-2.3
	h-0.1c-19.9,0-36.1-15.6-36.1-34.9C750.3,286.5,757.9,274.5,769.9,268.7z"/>
<line class="st3" x1="846.3" y1="223.1" x2="846.3" y2="465.4"/>
<linearGradient id="SVGID_2_" gradientUnits="userSpaceOnUse" x1="846.1" y1="-0.7" x2="846.1" y2="-242.9" gradientTransform="matrix(1 0 0 1 0 466)">
	<stop  offset="0" style="stop-color:#808080;stop-opacity:0.25"/>
	<stop  offset="0.54" style="stop-color:#808080;stop-opacity:0.12"/>
	<stop  offset="1" style="stop-color:#808080;stop-opacity:0.1"/>
</linearGradient>
<rect x="839.5" y="223.1" class="st4" width="13.2" height="242.2"/>
<rect x="842.7" y="223.1" class="st5" width="7.3" height="242.2"/>
<line class="st3" x1="847.1" y1="295.7" x2="803.8" y2="251.6"/>
<rect x="821.8" y="242.7" transform="matrix(0.7141 -0.7 0.7 0.7141 44.42 656.0346)" class="st5" width="7.3" height="61.8"/>
<line class="st3" x1="847.1" y1="333.6" x2="891.9" y2="302.1"/>
<rect x="842.1" y="314.2" transform="matrix(0.8186 -0.5744 0.5744 0.8186 -24.843 557.1199)" class="st5" width="54.8" height="7.3"/>
<g>
	
		<linearGradient id="SVGID_3_" gradientUnits="userSpaceOnUse" x1="913.7496" y1="164.26" x2="913.7496" y2="-58.14" gradientTransform="matrix(1 0 0 1 -146.3 216.54)">
		<stop  offset="0" style="stop-color:#808080;stop-opacity:0.25"/>
		<stop  offset="0.54" style="stop-color:#808080;stop-opacity:0.12"/>
		<stop  offset="1" style="stop-color:#808080;stop-opacity:0.1"/>
	</linearGradient>
	<path class="st6" d="M853.2,273.1c17.4-19.9,15.3-50-4.5-67.4c-1.7-1.5-3.5-2.8-5.3-4c3-4.6,4.5-9.9,4.5-15.4
		c0-15.4-12.2-27.9-27.3-27.9c-12.2,0.1-22.9,8.3-26.2,20.1c-7.2-12.4-20.5-20-34.8-20.1c-22.5,0-40.7,18.6-40.7,41.6
		c0,4.9,0.8,9.8,2.5,14.4c-0.8-0.1-1.7-0.1-2.5-0.1c-18,0-32.7,15-32.7,33.4c0,1.1,0.1,2.3,0.2,3.4c-15,6.7-24.6,21.7-24.5,38.1
		c0,22.9,18.2,41.5,40.5,41.5c2.3,0,4.7-0.2,7-0.6c-0.1,1.4-0.2,2.8-0.2,4.2c0,25.7,20.4,46.5,45.5,46.5c9.3,0,18.3-2.9,25.9-8.3
		c6.1,5.3,13.9,8.3,22,8.3c18.8,0,34-15.6,34-34.8c0-0.8-0.1-1.7-0.1-2.5h0.1c20.1,0,36.4-16.7,36.4-37.2
		C873,292.4,865.4,279.6,853.2,273.1z"/>
</g>
<path id="c2060184-c570-49c2-acda-2f80a9472e25" class="st7" d="M847.9,272.9c16.3-18.6,14.4-46.9-4.3-63.2c-1.6-1.4-3.2-2.6-5-3.8
	c2.8-4.3,4.2-9.3,4.2-14.4c0-14.5-11.5-26.2-25.6-26.2c-11.5,0.1-21.5,7.8-24.5,18.9c-6.8-11.6-19.2-18.8-32.7-18.9
	c-21.1,0-38.2,17.5-38.2,39.1c0,4.6,0.8,9.2,2.3,13.5c-0.8-0.1-1.5-0.1-2.3-0.1c-16.9,0-30.7,14-30.7,31.4c0,1.1,0,2.1,0.2,3.2
	c-14.1,6.3-23.1,20.3-23,35.8c0,21.5,17,38.9,38.1,38.9c2.2,0,4.4-0.2,6.6-0.6c-0.1,1.3-0.2,2.6-0.2,3.9c0,24.1,19.1,43.7,42.7,43.7
	c8.7,0,17.2-2.7,24.3-7.8c5.7,5,13.1,7.8,20.7,7.8c17.6,0,31.9-14.6,31.9-32.6c0-0.8-0.1-1.5-0.1-2.3h0.1c18.9,0,34.2-15.7,34.2-35
	C866.6,291,859.4,279,847.9,272.9z"/>
<linearGradient id="SVGID_4_" gradientUnits="userSpaceOnUse" x1="775.55" y1="3.8" x2="775.55" y2="-243" gradientTransform="matrix(1 0 0 1 0 466)">
	<stop  offset="0" style="stop-color:#808080;stop-opacity:0.25"/>
	<stop  offset="0.54" style="stop-color:#808080;stop-opacity:0.12"/>
	<stop  offset="1" style="stop-color:#808080;stop-opacity:0.1"/>
</linearGradient>
<rect x="770.6" y="223" class="st8" width="9.9" height="246.8"/>
<rect x="773.4" y="226.5" class="st5" width="5" height="243.3"/>
<rect x="765" y="275.2" transform="matrix(0.6794 -0.7337 0.7337 0.6794 51.1288 672.4792)" class="st5" width="60.3" height="5"/>
<rect x="751" y="295.7" transform="matrix(0.5962 -0.8028 0.8028 0.5962 45.6453 735.0336)" class="st5" width="5" height="52.9"/>
<g id="db20f295-6229-40c0-b196-6bb997b23afd">
	
		<linearGradient id="SVGID_5_" gradientUnits="userSpaceOnUse" x1="868.9" y1="200.4803" x2="868.9" y2="52.249" gradientTransform="matrix(1 0 0 1 -146.3 216.54)">
		<stop  offset="0" style="stop-color:#808080;stop-opacity:0.25"/>
		<stop  offset="0.54" style="stop-color:#808080;stop-opacity:0.12"/>
		<stop  offset="1" style="stop-color:#808080;stop-opacity:0.1"/>
	</linearGradient>
	<path class="st9" d="M662,345.3c-5.3-5.7-8.3-13.2-8.3-21c0.1-10.9,5.9-21,15.3-26.6c-2.1-3-3.2-6.6-3.2-10.3
		c0-10.3,8.6-18.6,19.3-18.6c8.4-0.1,15.9,5.4,18.5,13.4c5.3-8.4,14.6-13.5,24.6-13.4c15.9,0,28.7,12.4,28.7,27.7
		c0,3.3-0.6,6.5-1.8,9.6c0.6,0,1.2-0.1,1.8-0.1c12.7,0,23,10,23,22.3c0,0.8,0,1.5-0.1,2.3c10.4,4.2,17.2,14.2,17.3,25.4
		c0,15.3-12.8,27.7-28.6,27.7c-1.7,0-3.3-0.1-5-0.4c0.1,0.9,0.1,1.8,0.1,2.8c0,17.1-14.4,31-32.1,31c-6.5,0-12.8-1.9-18.2-5.4
		c-4.4,3.6-9.9,5.5-15.5,5.5c-13.3,0-24-10.4-24-23.2c0-0.6,0-1.1,0.1-1.6h-0.1c-14.2,0-25.7-11.1-25.7-24.8
		C648.1,357.9,653.5,349.4,662,345.3z"/>
</g>
<path class="st2" d="M664.6,345.2c-5.1-5.4-8-12.6-8-20.1c0.1-10.5,5.6-20.1,14.6-25.5c-2-2.9-3.1-6.3-3-9.8
	c0-9.8,8.3-17.8,18.4-17.8c8.1-0.1,15.3,5.1,17.7,12.8c5.1-8,14-12.9,23.5-12.8c15.2,0,27.5,11.9,27.5,26.6c0,3.1-0.6,6.2-1.7,9.2
	c0.6,0,1.1-0.1,1.7-0.1c12.2,0,22.1,9.5,22.1,21.3c0,0.7,0,1.4-0.1,2.2c9.9,4,16.5,13.6,16.6,24.3c0,14.6-12.3,26.5-27.4,26.5
	c-1.6,0-3.2-0.1-4.7-0.4c0.1,0.9,0.1,1.8,0.1,2.7c0,16.4-13.8,29.7-30.7,29.7c-6.2,0-12.3-1.8-17.5-5.3c-4.2,3.4-9.4,5.3-14.9,5.3
	c-12.7,0-23-9.9-23-22.2c0-0.5,0-1,0.1-1.6h-0.1c-13.6,0-24.6-10.6-24.6-23.8C651.2,357.3,656.4,349.1,664.6,345.2z"/>
<line class="st3" x1="716.7" y1="314.1" x2="716.7" y2="479.2"/>
<linearGradient id="SVGID_6_" gradientUnits="userSpaceOnUse" x1="716.6" y1="13.2" x2="716.6" y2="-151.9" gradientTransform="matrix(1 0 0 1 0 466)">
	<stop  offset="0" style="stop-color:#808080;stop-opacity:0.25"/>
	<stop  offset="0.54" style="stop-color:#808080;stop-opacity:0.12"/>
	<stop  offset="1" style="stop-color:#808080;stop-opacity:0.1"/>
</linearGradient>
<rect x="712.1" y="314.1" class="st10" width="9" height="165.1"/>
<rect x="714.2" y="314.1" class="st5" width="5" height="165.1"/>
<line id="cd90862a-73c1-467f-8a8f-23aaf7962413" class="st3" x1="717.2" y1="363.5" x2="687.7" y2="333.5"/>
<rect x="700" y="327.5" transform="matrix(0.7141 -0.7 0.7 0.7141 -43.1553 591.4056)" class="st5" width="5" height="42.1"/>
<line id="f406e355-8aa2-4ce0-9f47-8fc27dbb63cd" class="st3" x1="717.2" y1="389.4" x2="747.8" y2="368"/>
<rect x="713.9" y="376.3" transform="matrix(0.8186 -0.5744 0.5744 0.8186 -84.6641 489.4607)" class="st5" width="37.3" height="5"/>
<g id="af04bae7-87e5-447e-b22a-307a28405780">
	
		<linearGradient id="SVGID_7_" gradientUnits="userSpaceOnUse" x1="835.2507" y1="205.76" x2="835.2507" y2="56.6548" gradientTransform="matrix(1 0 0 1 -146.3 216.54)">
		<stop  offset="0" style="stop-color:#808080;stop-opacity:0.25"/>
		<stop  offset="0.54" style="stop-color:#808080;stop-opacity:0.12"/>
		<stop  offset="1" style="stop-color:#808080;stop-opacity:0.1"/>
	</linearGradient>
	<path class="st11" d="M746.6,350.2c11.7-13.3,10.3-33.5-3-45.2c-1.1-1-2.4-1.9-3.6-2.8c2-3.1,3-6.7,3-10.3
		c0.2-10.1-7.7-18.5-17.8-18.7c-8.4-0.2-15.9,5.4-18.1,13.5c-4.8-8.3-13.7-13.4-23.4-13.5c-15.1,0-27.3,12.5-27.3,27.9
		c0,3.3,0.6,6.5,1.7,9.6c-0.5,0-1.1-0.1-1.7-0.1c-12.2,0.1-22.1,10.2-21.9,22.4l0,0c0,0.8,0,1.5,0.1,2.3
		c-10.1,4.5-16.5,14.5-16.5,25.6c0,15.4,12.2,27.8,27.2,27.8c1.6,0,3.2-0.1,4.7-0.4c-0.1,0.9-0.1,1.9-0.1,2.8
		c0,17.3,13.7,31.2,30.5,31.2c6.2,0,12.3-1.9,17.4-5.6c4.1,3.6,9.3,5.6,14.8,5.6c12.7-0.1,23-10.6,22.8-23.3l0,0
		c0-0.6,0-1.1-0.1-1.7h0.1c13.5,0,24.4-11.2,24.4-25C759.9,363.1,754.8,354.5,746.6,350.2z"/>
</g>
<path id="e5433075-9388-42ed-900f-702a5a1be897" class="st7" d="M743,350c10.9-12.5,9.7-31.5-2.8-42.4c-1.1-0.9-2.2-1.8-3.4-2.6
	c1.9-2.9,2.9-6.2,2.8-9.7c0.2-9.5-7.3-17.3-16.7-17.6c-7.9-0.2-14.9,5-17,12.6c-4.6-7.8-12.9-12.6-22-12.7
	c-14.2,0-25.6,11.7-25.6,26.2c0,3.1,0.5,6.1,1.6,9c-0.5,0-1-0.1-1.6-0.1c-11.5,0.1-20.7,9.5-20.6,21c0,0.7,0,1.4,0.1,2.1
	c-9.4,4.2-15.5,13.6-15.5,24c0,14.4,11.4,26.1,25.5,26.1c1.5,0,3-0.1,4.4-0.4c-0.1,0.9-0.1,1.8-0.1,2.6c0,16.2,12.8,29.3,28.7,29.3
	c5.9,0,11.6-1.8,16.3-5.2c3.8,3.4,8.8,5.2,13.9,5.2c12-0.1,21.5-9.9,21.4-21.9c0-0.5,0-1-0.1-1.5h0.1c12.8-0.1,23.1-10.6,22.9-23.5
	l0,0C755.6,362.1,750.8,354.1,743,350z"/>
<linearGradient id="SVGID_8_" gradientUnits="userSpaceOnUse" x1="694.55" y1="16.2" x2="694.55" y2="-149.4" gradientTransform="matrix(1 0 0 1 0 466)">
	<stop  offset="0" style="stop-color:#808080;stop-opacity:0.25"/>
	<stop  offset="0.54" style="stop-color:#808080;stop-opacity:0.12"/>
	<stop  offset="1" style="stop-color:#808080;stop-opacity:0.1"/>
</linearGradient>
<rect x="691.2" y="316.6" class="st12" width="6.7" height="165.6"/>
<rect x="693.1" y="318.9" class="st5" width="3.3" height="163.3"/>
<rect x="687.4" y="351.6" transform="matrix(0.6794 -0.7337 0.7337 0.6794 -32.3254 632.4855)" class="st5" width="40.5" height="3.3"/>
<rect x="678.1" y="365.4" transform="matrix(0.5962 -0.8028 0.8028 0.5962 -33.1094 700.4172)" class="st5" width="3.3" height="35.5"/>
<linearGradient id="SVGID_9_" gradientUnits="userSpaceOnUse" x1="546.3" y1="20.3" x2="546.3" y2="-230.7" gradientTransform="matrix(1 0 0 1 0 466)">
	<stop  offset="0" style="stop-color:#808080;stop-opacity:0.25"/>
	<stop  offset="0.54" style="stop-color:#808080;stop-opacity:0.12"/>
	<stop  offset="1" style="stop-color:#808080;stop-opacity:0.1"/>
</linearGradient>
<rect x="405.3" y="235.3" class="st13" width="282" height="251"/>
<rect x="220.3" y="235.3" class="st14" width="460" height="243"/>
<linearGradient id="SVGID_10_" gradientUnits="userSpaceOnUse" x1="622.6" y1="42.76" x2="622.6" y2="-75.24" gradientTransform="matrix(1 0 0 1 -146.3 216.54)">
	<stop  offset="0" style="stop-color:#808080;stop-opacity:0.25"/>
	<stop  offset="0.54" style="stop-color:#808080;stop-opacity:0.12"/>
	<stop  offset="1" style="stop-color:#808080;stop-opacity:0.1"/>
</linearGradient>
<path class="st15" d="M702.3,259.3h-452v-118h435.5c9.1,0,16.5,7.4,16.5,16.5V259.3z"/>
<path class="st16" d="M250.3,146h431.6c9.1,0,16.5,7.4,16.5,16.5v93.8l0,0H250.3l0,0V146L250.3,146z"/>
<path class="st17" d="M250.3,146h431.6c9.1,0,16.5,7.4,16.5,16.5v93.8l0,0H250.3l0,0V146L250.3,146z"/>
<linearGradient id="SVGID_11_" gradientUnits="userSpaceOnUse" x1="249.3" y1="20.3" x2="249.3" y2="-452.7" gradientTransform="matrix(1 0 0 1 0 466)">
	<stop  offset="0" style="stop-color:#808080;stop-opacity:0.25"/>
	<stop  offset="0.54" style="stop-color:#808080;stop-opacity:0.12"/>
	<stop  offset="1" style="stop-color:#808080;stop-opacity:0.1"/>
</linearGradient>
<polygon class="st18" points="249.3,13.3 93.3,123.2 93.3,215.8 93.3,486.3 405.3,486.3 405.3,215.8 405.3,123.2 "/>
<polygon class="st16" points="398.3,121.3 250.3,13.3 102.3,121.3 102.3,212.3 398.3,212.3 "/>
<polygon class="st19" points="398.3,121.3 250.3,13.3 102.3,121.3 102.3,212.3 398.3,212.3 "/>
<rect x="102.3" y="212.3" class="st14" width="296" height="266"/>
<linearGradient id="SVGID_12_" gradientUnits="userSpaceOnUse" x1="250.3" y1="-290.7" x2="250.3" y2="-463.6" gradientTransform="matrix(1 0 0 1 0 466)">
	<stop  offset="0" style="stop-color:#808080;stop-opacity:0.25"/>
	<stop  offset="0.54" style="stop-color:#808080;stop-opacity:0.12"/>
	<stop  offset="1" style="stop-color:#808080;stop-opacity:0.1"/>
</linearGradient>
<polygon class="st20" points="417.3,175.3 250.3,56.1 81.3,175.3 70.3,133.4 250.3,2.4 430.3,133.4 "/>
<polygon class="st16" points="415.7,169.2 250.3,48.8 84.8,169.2 77.7,131.5 250.3,5.9 422.8,131.5 "/>
<polygon class="st21" points="415.7,169.2 250.3,48.8 84.8,169.2 77.7,131.5 250.3,5.9 422.8,131.5 "/>
<rect x="166.3" y="270.3" class="st22" width="168" height="208"/>
<rect x="166.3" y="270.3" class="st16" width="168" height="36"/>
<rect x="166.3" y="442.3" class="st16" width="168" height="36"/>
<path class="st23" d="M531.6,403.5c0.8,0,1.5-0.7,1.5-1.5s-0.7-1.5-1.5-1.5s-1.5,0.7-1.5,1.5S530.8,403.5,531.6,403.5z"/>
<rect x="490.3" y="326.3" class="st22" width="82" height="152"/>
<rect x="593.3" y="294.3" class="st22" width="77" height="56"/>
<rect x="593.3" y="294.3" class="st24" width="77" height="25"/>
<g>
	
		<linearGradient id="SVGID_13_" gradientUnits="userSpaceOnUse" x1="257.25" y1="218.46" x2="257.25" y2="94.8558" gradientTransform="matrix(1 0 0 1 -146.3 216.54)">
		<stop  offset="0" style="stop-color:#808080;stop-opacity:0.25"/>
		<stop  offset="0.54" style="stop-color:#808080;stop-opacity:0.12"/>
		<stop  offset="1" style="stop-color:#808080;stop-opacity:0.1"/>
	</linearGradient>
	<path class="st25" d="M60.7,375.1c-4.5-4.7-7-11-7-17.5c0.1-9.1,4.9-17.5,12.7-22.2c-1.7-2.5-2.7-5.5-2.7-8.5
		c0.2-8.7,7.3-15.7,16.1-15.5c7-0.1,13.3,4.5,15.4,11.2c4.5-7,12.2-11.2,20.5-11.2c13.2,0,23.9,10.4,23.9,23.1c0,2.7-0.5,5.4-1.5,8
		c0.5,0,1-0.1,1.5-0.1c10.6,0,19.2,8.3,19.2,18.6c0,0.6,0,1.2-0.1,1.9c8.7,3.5,14.3,11.9,14.4,21.2c0,12.7-10.7,23-23.9,23
		c-1.4,0-2.8-0.1-4.1-0.3c0.1,0.8,0.1,1.5,0.1,2.3c0,14.3-12,25.9-26.8,25.9c-5.4,0-10.7-1.6-15.3-4.6c-3.7,3-8.2,4.6-12.9,4.6
		c-11,0-20-8.7-20-19.3c0-0.5,0-0.9,0.1-1.4h-0.1c-11.8,0-21.4-9.3-21.4-20.7C49,385.7,53.6,378.5,60.7,375.1z"/>
</g>
<path class="st2" d="M62.8,375c-4.3-4.5-6.6-10.5-6.6-16.7c0.1-8.7,4.7-16.8,12.2-21.2c-1.7-2.4-2.5-5.3-2.5-8.2
	c0.1-8.3,7-15,15.4-14.9l0,0c6.7-0.1,12.7,4.3,14.8,10.7c4.3-6.7,11.7-10.7,19.6-10.7c12.6,0,22.9,9.9,22.9,22.1
	c0,2.6-0.5,5.2-1.4,7.6c0.5,0,0.9-0.1,1.4-0.1c10.2,0,18.4,8,18.4,17.8c0,0.6,0,1.2-0.1,1.8c8.3,3.3,13.7,11.4,13.8,20.3
	c0,12.2-10.2,22.1-22.8,22.1c-1.3,0-2.7-0.1-4-0.3c0.1,0.7,0.1,1.5,0.1,2.2c0,13.7-11.5,24.8-25.6,24.8c-5.2,0-10.2-1.5-14.5-4.4
	c-3.5,2.9-7.9,4.4-12.4,4.4c-10.6,0-19.1-8.3-19.1-18.5c0-0.4,0-0.9,0.1-1.3h-0.1c-11.3,0-20.5-8.9-20.5-19.8
	C51.7,385.1,56.1,378.3,62.8,375z"/>
<line id="b49a21fb-81f1-4431-9ecd-ca46c91409d2" class="st3" x1="106.3" y1="349.1" x2="106.3" y2="486.7"/>
<linearGradient id="SVGID_14_" gradientUnits="userSpaceOnUse" x1="106.15" y1="20.7" x2="106.15" y2="-116.9" gradientTransform="matrix(1 0 0 1 0 466)">
	<stop  offset="0" style="stop-color:#808080;stop-opacity:0.25"/>
	<stop  offset="0.54" style="stop-color:#808080;stop-opacity:0.12"/>
	<stop  offset="1" style="stop-color:#808080;stop-opacity:0.1"/>
</linearGradient>
<rect x="102.4" y="349.1" class="st26" width="7.5" height="137.6"/>
<rect x="104.2" y="349.1" class="st5" width="4.1" height="137.6"/>
<line class="st3" x1="106.7" y1="390.3" x2="82.1" y2="365.3"/>
<rect x="92.3" y="360.2" transform="matrix(0.7141 -0.7 0.7 0.7141 -237.497 174.0311)" class="st5" width="4.1" height="35.1"/>
<line class="st3" x1="106.7" y1="411.9" x2="132.2" y2="394"/>
<rect x="103.9" y="400.8" transform="matrix(0.8186 -0.5744 0.5744 0.8186 -209.7416 141.6719)" class="st5" width="31.1" height="4.1"/>
<g id="a27ca12e-65b6-46c0-899b-83e3c1e240bd">
	
		<linearGradient id="SVGID_15_" gradientUnits="userSpaceOnUse" x1="208.35" y1="218.46" x2="208.35" y2="94.8558" gradientTransform="matrix(1 0 0 1 -146.3 216.54)">
		<stop  offset="0" style="stop-color:#808080;stop-opacity:0.25"/>
		<stop  offset="0.54" style="stop-color:#808080;stop-opacity:0.12"/>
		<stop  offset="1" style="stop-color:#808080;stop-opacity:0.1"/>
	</linearGradient>
	<path class="st27" d="M11.7,375.1c-4.5-4.7-7-11-7-17.5c0.1-9.1,4.9-17.5,12.7-22.2c-1.7-2.5-2.7-5.5-2.7-8.5
		c0.2-8.7,7.3-15.7,16.1-15.5c7-0.1,13.3,4.5,15.4,11.2c4.5-7,12.2-11.2,20.5-11.2c13.2,0,23.9,10.4,23.9,23.1c0,2.7-0.5,5.4-1.5,8
		c0.5,0,1-0.1,1.5-0.1c10.6,0,19.2,8.3,19.2,18.6c0,0.6,0,1.2-0.1,1.9c8.7,3.5,14.3,11.9,14.4,21.2c0,12.7-10.7,23-23.9,23
		c-1.4,0-2.8-0.1-4.1-0.3c0.1,0.8,0.1,1.5,0.1,2.3c0,14.3-12,25.9-26.8,25.9c-5.4,0-10.7-1.6-15.3-4.6c-3.7,3-8.2,4.6-12.9,4.6
		c-11,0-20-8.7-20-19.3c0-0.5,0-0.9,0.1-1.4h-0.1C9.6,414.2,0,405,0,393.5C0,385.7,4.6,378.5,11.7,375.1z"/>
</g>
<path class="st2" d="M13.8,375c-4.3-4.5-6.6-10.5-6.6-16.7c0.1-8.7,4.7-16.8,12.2-21.2c-1.7-2.4-2.5-5.3-2.5-8.2
	c0.1-8.3,7-15,15.4-14.9l0,0c6.7-0.1,12.7,4.3,14.8,10.7C51.4,318,58.8,314,66.7,314c12.6,0,22.9,9.9,22.9,22.1
	c0,2.6-0.5,5.2-1.4,7.6c0.5,0,0.9-0.1,1.4-0.1c10.2,0,18.4,8,18.4,17.8c0,0.6,0,1.2-0.1,1.8c8.3,3.3,13.7,11.4,13.8,20.3
	c0,12.2-10.2,22.1-22.8,22.1c-1.3,0-2.7-0.1-4-0.3c0.1,0.7,0.1,1.5,0.1,2.2c0,13.7-11.5,24.8-25.6,24.8c-5.2,0-10.2-1.5-14.5-4.4
	c-3.5,2.9-7.9,4.4-12.4,4.4c-10.6,0-19.1-8.3-19.1-18.5c0-0.4,0-0.9,0.1-1.3h-0.1c-11.3,0-20.5-8.9-20.5-19.8
	C2.7,385.1,7.1,378.3,13.8,375z"/>
<line class="st3" x1="57.3" y1="349.1" x2="57.3" y2="486.7"/>
<linearGradient id="SVGID_16_" gradientUnits="userSpaceOnUse" x1="57.15" y1="20.7" x2="57.15" y2="-116.9" gradientTransform="matrix(1 0 0 1 0 466)">
	<stop  offset="0" style="stop-color:#808080;stop-opacity:0.25"/>
	<stop  offset="0.54" style="stop-color:#808080;stop-opacity:0.12"/>
	<stop  offset="1" style="stop-color:#808080;stop-opacity:0.1"/>
</linearGradient>
<rect x="53.4" y="349.1" class="st28" width="7.5" height="137.6"/>
<rect x="55.2" y="349.1" class="st5" width="4.1" height="137.6"/>
<line class="st3" x1="57.7" y1="390.3" x2="33.1" y2="365.3"/>
<rect x="43.3" y="360.2" transform="matrix(0.7141 -0.7 0.7 0.7141 -251.5081 139.7325)" class="st5" width="4.1" height="35.1"/>
<line class="st3" x1="57.7" y1="411.9" x2="83.2" y2="394"/>
<rect x="54.8" y="400.8" transform="matrix(0.8186 -0.5744 0.5744 0.8186 -218.6323 113.5232)" class="st5" width="31.1" height="4.1"/>
<g>
	
		<linearGradient id="SVGID_17_" gradientUnits="userSpaceOnUse" x1="221.4002" y1="219.7601" x2="221.4002" y2="95.36" gradientTransform="matrix(1 0 0 1 -146.3 216.54)">
		<stop  offset="0" style="stop-color:#808080;stop-opacity:0.25"/>
		<stop  offset="0.54" style="stop-color:#808080;stop-opacity:0.12"/>
		<stop  offset="1" style="stop-color:#808080;stop-opacity:0.1"/>
	</linearGradient>
	<path class="st29" d="M123.2,376.2c9.7-11.1,8.6-28-2.5-37.7c-1-0.8-2-1.6-3-2.3c1.7-2.6,2.5-5.5,2.5-8.6
		c0.2-8.4-6.4-15.4-14.9-15.6c-7-0.2-13.2,4.5-15.1,11.2c-4-6.9-11.5-11.2-19.5-11.3C58,312,47.8,322.4,47.9,335.1c0,0,0,0,0,0.1
		c0,2.7,0.5,5.4,1.4,8c-0.5,0-0.9-0.1-1.4-0.1c-10.2,0.1-18.4,8.5-18.3,18.7v0.1c0,0.6,0,1.3,0.1,1.9c-8.4,3.8-13.8,12.1-13.7,21.3
		c-0.1,12.7,10,23,22.7,23.2c1.3,0,2.6-0.1,3.9-0.3c-0.1,0.8-0.1,1.5-0.1,2.3c0,14.4,11.4,26,25.5,26c5.2,0,10.3-1.6,14.5-4.6
		c3.4,3,7.8,4.6,12.3,4.6c10.6-0.1,19.1-8.8,19-19.5c0-0.5,0-0.9-0.1-1.4h0.1c11.4-0.1,20.5-9.5,20.4-20.8
		C134.3,386.9,130,379.8,123.2,376.2z"/>
</g>
<path id="ffc97756-bf62-44e2-b6c0-20f8128ede8f" class="st7" d="M120.2,376.1c9.1-10.4,8.1-26.3-2.4-35.4c-0.9-0.8-1.8-1.5-2.8-2.1
	c1.6-2.4,2.4-5.2,2.4-8.1c0.2-7.9-6-14.5-13.9-14.7c-6.6-0.2-12.5,4.2-14.2,10.6c-3.8-6.5-10.8-10.5-18.3-10.6
	c-11.9,0.2-21.5,9.9-21.3,21.9c0,2.6,0.4,5.1,1.3,7.5c-0.4,0-0.9-0.1-1.3-0.1c-9.6,0.1-17.3,8-17.1,17.5c0,0.6,0,1.2,0.1,1.8
	c-7.9,3.5-12.9,11.4-12.9,20c-0.1,11.9,9.4,21.6,21.3,21.8c1.2,0,2.5-0.1,3.7-0.3c-0.1,0.7-0.1,1.5-0.1,2.2
	c0,13.5,10.7,24.4,23.9,24.4c4.9,0,9.6-1.5,13.6-4.3c3.2,2.8,7.3,4.3,11.5,4.3c10-0.1,18-8.3,17.9-18.3l0,0c0-0.4,0-0.9-0.1-1.3h0.1
	c10.7-0.1,19.2-8.9,19.1-19.6l0,0C130.7,386.1,126.7,379.5,120.2,376.1z"/>
<linearGradient id="SVGID_18_" gradientUnits="userSpaceOnUse" x1="79.8" y1="20.3" x2="79.8" y2="-117.8" gradientTransform="matrix(1 0 0 1 0 466)">
	<stop  offset="0" style="stop-color:#808080;stop-opacity:0.25"/>
	<stop  offset="0.54" style="stop-color:#808080;stop-opacity:0.12"/>
	<stop  offset="1" style="stop-color:#808080;stop-opacity:0.1"/>
</linearGradient>
<rect x="77" y="348.2" class="st30" width="5.6" height="138.1"/>
<rect x="78.6" y="350.1" class="st5" width="2.8" height="136.1"/>
<rect x="73.9" y="377.4" transform="matrix(0.6794 -0.7337 0.7337 0.6794 -248.8443 188.0378)" class="st5" width="33.7" height="2.8"/>
<rect x="66" y="388.8" transform="matrix(0.5962 -0.8028 0.8028 0.5962 -296.8408 217.0791)" class="st5" width="2.8" height="29.6"/>
<linearGradient id="SVGID_19_" gradientUnits="userSpaceOnUse" x1="791.0087" y1="186.574" x2="791.0087" y2="-210.7336" gradientTransform="matrix(1 0 0 1 -146.3 216.54)">
	<stop  offset="0" style="stop-color:#B3B3B3;stop-opacity:0.25"/>
	<stop  offset="0.54" style="stop-color:#B3B3B3;stop-opacity:0.1"/>
	<stop  offset="1" style="stop-color:#B3B3B3;stop-opacity:5.000000e-02"/>
</linearGradient>
<path class="st31" d="M713.3,52.8C654.8-8.1,557.9-10.1,497,48.5c-0.9,0.9-1.8,1.7-2.7,2.6c-57.9,58.4-58.9,153.4-2.3,213
	c51.4,54.1,134.3,63.3,196.2,21.7l110.6,115c2.8,3,7.6,3.1,10.5,0.2l0,0l27.6-26.5c3-2.8,3.1-7.6,0.2-10.5l0,0L726.6,249
	C770.4,189,764.8,106.3,713.3,52.8z M678.9,237.7c-43.6,41.9-112.8,40.6-154.7-3s-40.6-112.8,3-154.7S640,39.4,681.9,83
	C723.8,126.5,722.4,195.8,678.9,237.7L678.9,237.7z"/>
<path class="st16" d="M725.3,47C666.8-14,569.9-15.9,509,42.7c-0.9,0.9-1.8,1.7-2.7,2.6c-57.9,58.4-58.9,153.4-2.3,213
	c51.4,54.1,134.3,63.3,196.2,21.7l110.6,115c2.8,3,7.6,3.1,10.5,0.2l0,0l27.6-26.5c3-2.8,3.1-7.6,0.2-10.5l0,0l-110.6-115
	C782.4,183.2,776.8,100.5,725.3,47z M690.9,231.9c-43.6,41.9-112.8,40.6-154.7-3s-40.6-112.8,3-154.7s112.8-40.6,154.7,3
	C735.8,120.7,734.4,190,690.9,231.9L690.9,231.9z"/>
<path class="st16" d="M534,122.5c-12.3,0-12.3,19.1,0,19.1S546.3,122.5,534,122.5z"/>
<path class="st16" d="M619.8,61.3c-33.1-0.8-63.3,15.9-79.3,41c-5.2,8.2,9.6,15.4,14.8,7.3c13.3-20.8,38.5-34,65.7-33.3
	c28.6,0.7,54.6,17.1,68.4,39.8c5.2,8.6,18.9,0.8,13.7-7.8C686.4,80.7,654,62.1,619.8,61.3z"/>
</svg>
