<?xml version="1.0" encoding="utf-8"?>
<!-- Generator: Adobe Illustrator 23.0.2, SVG Export Plug-In . SVG Version: 6.00 Build 0)  -->
<svg version="1.1" id="Layer_1" xmlns="http://www.w3.org/2000/svg" xmlns:xlink="http://www.w3.org/1999/xlink" x="0px" y="0px"
	 viewBox="0 0 15 15" style="enable-background:new 0 0 15 15;" xml:space="preserve">
<style type="text/css">
	.st0{fill:#282828;}
</style>
<g>
	<path class="st0" d="M13.4,13.7v0.5H2.1v-0.5c0-0.2,0.1-0.3,0.3-0.3h0.5V1.8c0-0.3,0.3-0.6,0.6-0.6H12c0.3,0,0.6,0.3,0.6,0.6v11.6
		h0.5C13.3,13.4,13.4,13.5,13.4,13.7z M5.3,4.2c0,0.2,0.1,0.3,0.3,0.3h1c0.2,0,0.3-0.1,0.3-0.3v-1c0-0.2-0.1-0.3-0.3-0.3h-1
		C5.4,2.8,5.3,3,5.3,3.1V4.2z M5.3,6.6c0,0.2,0.1,0.3,0.3,0.3h1c0.2,0,0.3-0.1,0.3-0.3v-1c0-0.2-0.1-0.3-0.3-0.3h-1
		c-0.2,0-0.3,0.1-0.3,0.3V6.6z M6.9,9V8c0-0.2-0.1-0.3-0.3-0.3h-1C5.4,7.7,5.3,7.8,5.3,8v1c0,0.2,0.1,0.3,0.3,0.3h1
		C6.8,9.3,6.9,9.2,6.9,9z M8.6,11.3c0-0.2-0.1-0.3-0.3-0.3h-1c-0.2,0-0.3,0.1-0.3,0.3v2.1h1.6V11.3z M10.2,3.1
		c0-0.2-0.1-0.3-0.3-0.3h-1C8.7,2.8,8.6,3,8.6,3.1v1c0,0.2,0.1,0.3,0.3,0.3h1c0.2,0,0.3-0.1,0.3-0.3V3.1z M10.2,5.6
		c0-0.2-0.1-0.3-0.3-0.3h-1c-0.2,0-0.3,0.1-0.3,0.3v1c0,0.2,0.1,0.3,0.3,0.3h1c0.2,0,0.3-0.1,0.3-0.3V5.6z M10.2,8
		c0-0.2-0.1-0.3-0.3-0.3h-1C8.7,7.7,8.6,7.8,8.6,8v1c0,0.2,0.1,0.3,0.3,0.3h1c0.2,0,0.3-0.1,0.3-0.3V8z"/>
</g>
</svg>
