<?xml version="1.0" encoding="utf-8"?>
<!-- Generator: Adobe Illustrator 23.0.2, SVG Export Plug-In . SVG Version: 6.00 Build 0)  -->
<svg version="1.1" id="Layer_1" xmlns="http://www.w3.org/2000/svg" xmlns:xlink="http://www.w3.org/1999/xlink" x="0px" y="0px"
	 viewBox="0 0 16 15" style="enable-background:new 0 0 16 15;" xml:space="preserve">
<style type="text/css">
	.st0{fill:#282828;}
</style>
<g>
	<path class="st0" d="M6.3,10.2c-1,0-2-0.2-2.8-0.6C3,9.8,2.2,10.2,1.3,10.2c-0.1,0-0.2,0-0.2-0.1c0-0.1,0-0.2,0-0.2
		c0,0,0.6-0.6,0.9-1.4c-0.6-0.7-1-1.5-1-2.3C1.1,3.8,3.4,2,6.3,2c2.9,0,5.3,1.8,5.3,4.1C11.6,8.3,9.3,10.2,6.3,10.2z M15.6,13.1
		c0.1,0.1,0.1,0.1,0,0.2c0,0.1-0.1,0.1-0.2,0.1c-0.9,0-1.7-0.3-2.3-0.6c-0.8,0.4-1.8,0.6-2.8,0.6c-2.2,0-4.1-1-4.9-2.5
		c0.3,0,0.5,0,0.8,0c3.4,0,6.1-2.2,6.1-4.9c0-0.2,0-0.3,0-0.5c1.9,0.6,3.3,2.1,3.3,3.8c0,0.9-0.4,1.7-1,2.3
		C15.1,12.4,15.6,13,15.6,13.1z"/>
</g>
</svg>
