<?xml version="1.0" encoding="utf-8"?>
<!-- Generator: Adobe Illustrator 23.0.2, SVG Export Plug-In . SVG Version: 6.00 Build 0)  -->
<svg version="1.1" id="Layer_1" xmlns="http://www.w3.org/2000/svg" xmlns:xlink="http://www.w3.org/1999/xlink" x="0px" y="0px"
	 viewBox="0 0 15 15" style="enable-background:new 0 0 15 15;" xml:space="preserve">
<style type="text/css">
	.st0{fill:#282828;}
</style>
<g>
	<path class="st0" d="M14.1,6.3v0.3l-2.4,1.8V3.7H3.5v4.7L1.1,6.6V6.3c0-0.3,0.2-0.8,0.5-1C1.8,5.2,2,5,2.3,4.8V3.7
		c0-0.7,0.5-1.2,1.2-1.2h2c0.1-0.1,0.1-0.1,0.2-0.2C6.1,2,7,1.2,7.6,1.2C8.1,1.2,9,2,9.4,2.3c0.1,0.1,0.2,0.1,0.2,0.2h2
		c0.7,0,1.2,0.5,1.2,1.2v1.1c0.3,0.2,0.5,0.4,0.8,0.6C13.9,5.6,14.1,5.9,14.1,6.3z M8.7,11.4l5.3-3.8V13c0,0.7-0.5,1.2-1.2,1.2H2.3
		c-0.7,0-1.2-0.5-1.2-1.2V7.6l5.3,3.8c0.4,0.3,0.8,0.4,1.2,0.4S8.4,11.7,8.7,11.4z M5.1,6.3V5.9c0-0.2,0.2-0.4,0.4-0.4h4.1
		c0.2,0,0.4,0.2,0.4,0.4v0.4c0,0.2-0.2,0.4-0.4,0.4H5.5C5.3,6.7,5.1,6.5,5.1,6.3z M5.1,8.3c0-0.2,0.2-0.4,0.4-0.4h4.1
		c0.2,0,0.4,0.2,0.4,0.4v0.4C10,9,9.8,9.1,9.6,9.1H5.5C5.3,9.1,5.1,9,5.1,8.7V8.3z"/>
</g>
</svg>
