<?xml version="1.0" encoding="utf-8"?>
<!-- Generator: Adobe Illustrator 23.0.2, SVG Export Plug-In . SVG Version: 6.00 Build 0)  -->
<svg version="1.1" id="Layer_1" xmlns="http://www.w3.org/2000/svg" xmlns:xlink="http://www.w3.org/1999/xlink" x="0px" y="0px"
	 viewBox="0 0 15 15" style="enable-background:new 0 0 15 15;" xml:space="preserve">
<style type="text/css">
	.st0{fill:#282828;}
</style>
<g>
	<path class="st0" d="M14.1,11c0,0,0,0.1,0,0.1l-0.6,2.6c-0.1,0.3-0.3,0.5-0.6,0.5C6.3,14.2,1.1,8.9,1.1,2.4c0-0.3,0.2-0.5,0.5-0.6
		l2.6-0.6c0,0,0.1,0,0.1,0c0.2,0,0.5,0.2,0.6,0.4l1.2,2.8c0,0.1,0,0.2,0,0.2C6.1,4.8,6,5,5.9,5.1L4.4,6.4c0.8,1.7,2.8,3.7,4.5,4.5
		l1.3-1.5c0.1-0.1,0.3-0.2,0.5-0.2c0.1,0,0.2,0,0.2,0l2.8,1.2C13.9,10.5,14.1,10.7,14.1,11z"/>
</g>
</svg>
