<?xml version="1.0" encoding="utf-8"?>
<!-- Generator: Adobe Illustrator 23.0.2, SVG Export Plug-In . SVG Version: 6.00 Build 0)  -->
<svg version="1.1" id="Layer_1" xmlns="http://www.w3.org/2000/svg" xmlns:xlink="http://www.w3.org/1999/xlink" x="0px" y="0px"
	 viewBox="0 0 13 10" style="enable-background:new 0 0 13 10;" xml:space="preserve">
<style type="text/css">
	.st0{fill:#282828;}
</style>
<g>
	<path class="st0" d="M12.7,5.2c0,0.1,0,0.2-0.1,0.3c-1.2,2.3-3.5,3.8-6.1,3.8c-2.6,0-4.9-1.5-6.1-3.8c0-0.1-0.1-0.2-0.1-0.3
		c0-0.1,0-0.2,0.1-0.3C1.6,2.6,3.9,1,6.5,1c2.6,0,4.9,1.5,6.1,3.8C12.7,4.9,12.7,5.1,12.7,5.2z M6.5,8.3c1.7,0,3.1-1.4,3.1-3.1v0
		c0-1.7-1.4-3.1-3.1-3.1c-1.7,0-3.1,1.4-3.1,3.1C3.4,6.9,4.8,8.3,6.5,8.3L6.5,8.3z M6.5,3.1c1.1,0,2.1,0.9,2.1,2.1S7.6,7.2,6.5,7.2
		c-1.1,0-2.1-0.9-2.1-2.1c0-0.2,0-0.4,0.1-0.5c0.2,0.1,0.4,0.2,0.6,0.2c0.6,0,1-0.5,1-1c0-0.2-0.1-0.5-0.2-0.6
		C6.1,3.1,6.4,3.1,6.5,3.1L6.5,3.1z"/>
</g>
</svg>
