<?xml version="1.0" encoding="utf-8"?>
<!-- Generator: Adobe Illustrator 23.0.2, SVG Export Plug-In . SVG Version: 6.00 Build 0)  -->
<svg version="1.1" id="Layer_1" xmlns="http://www.w3.org/2000/svg" xmlns:xlink="http://www.w3.org/1999/xlink" x="0px" y="0px"
	 viewBox="0 0 15 15" style="enable-background:new 0 0 15 15;" xml:space="preserve">
<style type="text/css">
	.st0{fill:#282828;}
</style>
<g>
	<path class="st0" d="M13.4,11.9V13c0,0.7-0.5,1.2-1.2,1.2H3.3c-0.7,0-1.2-0.5-1.2-1.2v-1.1c0-1.9,1.5-3.4,3.4-3.4h0.4
		c0.6,0.3,1.2,0.4,1.9,0.4S9,8.8,9.6,8.5H10C11.9,8.5,13.4,10.1,13.4,11.9z M4.5,4.5c0-1.8,1.5-3.3,3.3-3.3S11,2.7,11,4.5
		S9.5,7.7,7.7,7.7S4.5,6.3,4.5,4.5z"/>
</g>
</svg>
