<?xml version="1.0" encoding="utf-8"?>
<!-- Generator: Adobe Illustrator 23.0.2, SVG Export Plug-In . SVG Version: 6.00 Build 0)  -->
<svg version="1.1" id="Layer_1" xmlns="http://www.w3.org/2000/svg" xmlns:xlink="http://www.w3.org/1999/xlink" x="0px" y="0px"
	 viewBox="0 0 15 15" style="enable-background:new 0 0 15 15;" xml:space="preserve">
<style type="text/css">
	.st0{fill:#282828;}
</style>
<g>
	<path class="st0" d="M13.3,13.2c0,0.7-0.5,1.2-1.2,1.2H3.1c-0.7,0-1.2-0.5-1.2-1.2V4.2C1.9,3.6,2.4,3,3.1,3h1.2V1.7
		c0-0.2,0.1-0.3,0.3-0.3h1c0.2,0,0.3,0.1,0.3,0.3V3h3.3V1.7c0-0.2,0.1-0.3,0.3-0.3h1c0.2,0,0.3,0.1,0.3,0.3V3H12
		c0.7,0,1.2,0.5,1.2,1.2V13.2z M12,5.4H3.1V13c0,0.1,0.1,0.2,0.2,0.2h8.6c0.1,0,0.2-0.1,0.2-0.2V5.4z M4.6,8.7
		c-0.2,0-0.3-0.1-0.3-0.3v-1c0-0.2,0.1-0.3,0.3-0.3h1c0.2,0,0.3,0.1,0.3,0.3v1c0,0.2-0.1,0.3-0.3,0.3H4.6z M5.6,11.1h-1
		c-0.2,0-0.3-0.1-0.3-0.3v-1c0-0.2,0.1-0.3,0.3-0.3h1c0.2,0,0.3,0.1,0.3,0.3v1C5.9,11,5.8,11.1,5.6,11.1z M8.1,8.7h-1
		c-0.2,0-0.3-0.1-0.3-0.3v-1c0-0.2,0.1-0.3,0.3-0.3h1c0.2,0,0.3,0.1,0.3,0.3v1C8.4,8.6,8.2,8.7,8.1,8.7z M8.1,11.1h-1
		c-0.2,0-0.3-0.1-0.3-0.3v-1c0-0.2,0.1-0.3,0.3-0.3h1c0.2,0,0.3,0.1,0.3,0.3v1C8.4,11,8.2,11.1,8.1,11.1z M10.5,8.7h-1
		c-0.2,0-0.3-0.1-0.3-0.3v-1c0-0.2,0.1-0.3,0.3-0.3h1c0.2,0,0.3,0.1,0.3,0.3v1C10.8,8.6,10.7,8.7,10.5,8.7z M10.5,11.1h-1
		c-0.2,0-0.3-0.1-0.3-0.3v-1c0-0.2,0.1-0.3,0.3-0.3h1c0.2,0,0.3,0.1,0.3,0.3v1C10.8,11,10.7,11.1,10.5,11.1z"/>
</g>
</svg>
